<svg xmlns="http://www.w3.org/2000/svg" viewBox="0 0 998 2465.000000 " preserveAspectRatio="none">
  <title>profile</title>
  <polyline points="0	2410.000000 
1	2435.000000 
2	2422.500000 
3	2410.000000 
4	2400.000000 
5	2440.000000 
6	2440.000000 
7	2420.000000 
8	2390.000000 
9	2360.000000 
10	2420.000000 
11	2400.000000 
12	2430.000000 
13	2405.000000 
14	2410.000000 
15	2425.000000 
16	2420.000000 
17	2430.000000 
18	2425.000000 
19	2420.000000 
20	2400.000000 
21	2430.000000 
22	2420.000000 
23	2430.000000 
24	2460.000000 
25	2445.000000 
26	2400.000000 
27	2395.000000 
28	2395.000000 
29	2410.000000 
30	2410.000000 
31	2350.000000 
32	2363.333330 
33	2330.000000 
34	2270.000000 
35	2290.000000 
36	2340.000000 
37	2380.000000 
38	2395.000000 
39	2380.000000 
40	2370.000000 
41	2390.000000 
42	2390.000000 
43	2415.000000 
44	2435.000000 
45	2420.000000 
46	2420.000000 
47	2405.000000 
48	2410.000000 
49	2420.000000 
50	2425.000000 
51	2410.000000 
52	2380.000000 
53	2380.000000 
54	2380.000000 
55	2385.000000 
56	2425.000000 
57	2400.000000 
58	2450.000000 
59	2410.000000 
60	2420.000000 
61	2410.000000 
62	2413.333330 
63	2425.000000 
64	2400.000000 
65	2410.000000 
66	2365.000000 
67	2310.000000 
68	2355.000000 
69	2375.000000 
70	2290.000000 
71	2310.000000 
72	2275.000000 
73	2270.000000 
74	2330.000000 
75	2380.000000 
76	2330.000000 
77	2355.000000 
78	2385.000000 
79	2365.000000 
80	2285.000000 
81	2290.000000 
82	2260.000000 
83	2243.333330 
84	2265.000000 
85	2360.000000 
86	2320.000000 
87	2293.333330 
88	2240.000000 
89	2293.333330 
90	2295.000000 
91	2315.000000 
92	2280.000000 
93	2180.000000 
94	2170.000000 
95	2160.000000 
96	2105.000000 
97	2030.000000 
98	1950.000000 
99	1975.000000 
100	2000.000000 
101	2050.000000 
102	1935.000000 
103	1935.000000 
104	1935.000000 
105	1915.000000 
106	1945.000000 
107	1945.000000 
108	1980.000000 
109	1970.000000 
110	1900.000000 
111	1810.000000 
112	1715.000000 
113	1600.000000 
114	1495.000000 
115	1375.000000 
116	1215.000000 
117	1115.000000 
118	985.000000 
119	905.000000 
120	920.000000 
121	997.500000 
122	1075.000000 
123	1152.500000 
124	1230.000000 
125	1250.000000 
126	1205.000000 
127	1210.000000 
128	1290.000000 
129	1345.000000 
130	1235.000000 
131	1155.000000 
132	1140.000000 
133	1120.000000 
134	1100.000000 
135	1080.000000 
136	1020.000000 
137	1020.000000 
138	1010.000000 
139	1010.000000 
140	1010.000000 
141	955.000000 
142	900.000000 
143	783.333000 
144	666.666600 
145	550.000000 
146	450.000000 
147	520.000000 
148	590.000000 
149	640.000000 
150	690.000000 
151	850.000000 
152	900.000000 
153	1110.000000 
154	1235.000000 
155	1360.000000 
156	1400.000000 
157	1405.000000 
158	1410.000000 
159	1545.000000 
160	1715.000000 
161	1870.000000 
162	1960.000000 
163	2090.000000 
164	2040.000000 
165	2090.000000 
166	2156.666670 
167	2160.000000 
168	2055.000000 
169	2130.000000 
170	2135.000000 
171	2125.000000 
172	2100.000000 
173	2115.000000 
174	2135.000000 
175	2155.000000 
176	2180.000000 
177	2205.000000 
178	2200.000000 
179	2160.000000 
180	2145.000000 
181	2160.000000 
182	2160.000000 
183	2170.000000 
184	2200.000000 
185	2200.000000 
186	2180.000000 
187	2170.000000 
188	2180.000000 
189	2160.000000 
190	2180.000000 
191	2160.000000 
192	2045.000000 
193	2040.000000 
194	2100.000000 
195	2160.000000 
196	2160.000000 
197	2175.000000 
198	2105.000000 
199	2160.000000 
200	2040.000000 
201	2075.000000 
202	2140.000000 
203	2160.000000 
204	2090.000000 
205	2045.000000 
206	2030.000000 
207	2130.000000 
208	2120.000000 
209	2060.000000 
210	1980.000000 
211	2030.000000 
212	2040.000000 
213	2060.000000 
214	2115.000000 
215	2153.333330 
216	2180.000000 
217	2150.000000 
218	2105.000000 
219	2180.000000 
220	2175.000000 
221	2176.666670 
222	2135.000000 
223	2040.000000 
224	2080.000000 
225	2120.000000 
226	2140.000000 
227	2125.000000 
228	2030.000000 
229	2050.000000 
230	2025.000000 
231	2130.000000 
232	2083.333330 
233	2135.000000 
234	2090.000000 
235	2020.000000 
236	2055.000000 
237	1923.333330 
238	2006.666670 
239	2050.000000 
240	2060.000000 
241	2100.000000 
242	2135.000000 
243	2150.000000 
244	2100.000000 
245	2095.000000 
246	2010.000000 
247	2065.000000 
248	2040.000000 
249	2090.000000 
250	2100.000000 
251	2125.000000 
252	2165.000000 
253	2145.000000 
254	2100.000000 
255	2100.000000 
256	2080.000000 
257	2075.000000 
258	2050.000000 
259	2065.000000 
260	2080.000000 
261	2080.000000 
262	2035.000000 
263	2020.000000 
264	2005.000000 
265	2000.000000 
266	1980.000000 
267	1985.000000 
268	2010.000000 
269	2000.000000 
270	2020.000000 
271	2045.000000 
272	1930.000000 
273	1870.000000 
274	1930.000000 
275	1920.000000 
276	1850.000000 
277	1840.000000 
278	1860.000000 
279	1830.000000 
280	1780.000000 
281	1780.000000 
282	1760.000000 
283	1776.666670 
284	1650.000000 
285	1590.000000 
286	1595.000000 
287	1405.000000 
288	1360.000000 
289	1225.000000 
290	1140.000000 
291	940.000000 
292	900.000000 
293	955.000000 
294	845.000000 
295	690.000000 
296	685.000000 
297	680.000000 
298	720.000000 
299	835.000000 
300	925.000000 
301	920.000000 
302	900.000000 
303	895.000000 
304	905.000000 
305	920.000000 
306	905.000000 
307	980.000000 
308	1090.000000 
309	1170.000000 
310	1220.000000 
311	1315.000000 
312	1465.000000 
313	1610.000000 
314	1800.000000 
315	1965.000000 
316	2050.000000 
317	2105.000000 
318	2230.000000 
319	2280.000000 
320	2270.000000 
321	2245.000000 
322	2280.000000 
323	2350.000000 
324	2330.000000 
325	2320.000000 
326	2285.000000 
327	2290.000000 
328	2330.000000 
329	2365.000000 
330	2340.000000 
331	2380.000000 
332	2400.000000 
333	2375.000000 
334	2335.000000 
335	2330.000000 
336	2350.000000 
337	2340.000000 
338	2380.000000 
339	2360.000000 
340	2285.000000 
341	2300.000000 
342	2235.000000 
343	2280.000000 
344	2310.000000 
345	2330.000000 
346	2230.000000 
347	2240.000000 
348	2295.000000 
349	2285.000000 
350	2280.000000 
351	2256.666670 
352	2350.000000 
353	2320.000000 
354	2260.000000 
355	2225.000000 
356	2200.000000 
357	2180.000000 
358	2230.000000 
359	2215.000000 
360	2205.000000 
361	2160.000000 
362	2220.000000 
363	2260.000000 
364	2300.000000 
365	2240.000000 
366	2265.000000 
367	2270.000000 
368	2295.000000 
369	2206.666670 
370	2195.000000 
371	2190.000000 
372	2205.000000 
373	2195.000000 
374	2150.000000 
375	2105.000000 
376	2060.000000 
377	2000.000000 
378	2060.000000 
379	2153.333330 
380	2190.000000 
381	2140.000000 
382	2135.000000 
383	2205.000000 
384	2290.000000 
385	2305.000000 
386	2335.000000 
387	2300.000000 
388	2315.000000 
389	2195.000000 
390	2150.000000 
391	2200.000000 
392	2240.000000 
393	2170.000000 
394	2135.000000 
395	2160.000000 
396	2190.000000 
397	2175.000000 
398	2130.000000 
399	2015.000000 
400	1990.000000 
401	1946.666670 
402	1970.000000 
403	1940.000000 
404	1840.000000 
405	1630.000000 
406	1530.000000 
407	1550.000000 
408	1365.000000 
409	1330.000000 
410	1345.000000 
411	1400.000000 
412	1396.666670 
413	1310.000000 
414	1083.333330 
415	1020.000000 
416	880.000000 
417	773.333330 
418	720.000000 
419	675.000000 
420	635.000000 
421	600.000000 
422	560.000000 
423	490.000000 
424	455.000000 
425	365.000000 
426	280.000000 
427	245.000000 
428	260.000000 
429	330.000000 
430	345.000000 
431	200.000000 
432	80.000000 
433	140.000000 
434	250.000000 
435	300.000000 
436	340.000000 
437	353.333330 
438	450.000000 
439	555.000000 
440	580.000000 
441	600.000000 
442	530.000000 
443	530.000000 
444	520.000000 
445	640.000000 
446	710.000000 
447	730.000000 
448	750.000000 
449	840.000000 
450	895.000000 
451	865.000000 
452	810.000000 
453	855.000000 
454	920.000000 
455	830.000000 
456	820.000000 
457	920.000000 
458	1090.000000 
459	1090.000000 
460	1080.000000 
461	1285.000000 
462	1400.000000 
463	1495.000000 
464	1635.000000 
465	1770.000000 
466	1805.000000 
467	1853.333330 
468	1823.333330 
469	1850.000000 
470	1956.666670 
471	1980.000000 
472	1975.000000 
473	2150.000000 
474	2160.000000 
475	2190.000000 
476	2215.000000 
477	2220.000000 
478	2240.000000 
479	2240.000000 
480	2120.000000 
481	2065.000000 
482	2130.000000 
483	2115.000000 
484	2045.000000 
485	1935.000000 
486	1850.000000 
487	1810.000000 
488	1800.000000 
489	1745.000000 
490	1650.000000 
491	1585.000000 
492	1495.000000 
493	1430.000000 
494	1310.000000 
495	1390.000000 
496	1370.000000 
497	1475.000000 
498	1545.000000 
499	1525.000000 
500	1525.000000 
501	1580.000000 
502	1380.000000 
503	1245.000000 
504	1150.000000 
505	1035.000000 
506	865.000000 
507	870.000000 
508	860.000000 
509	955.000000 
510	980.000000 
511	1105.000000 
512	1185.000000 
513	1190.000000 
514	996.666670 
515	850.000000 
516	685.000000 
517	615.000000 
518	575.000000 
519	650.000000 
520	755.000000 
521	790.000000 
522	965.000000 
523	1050.000000 
524	1120.000000 
525	1270.000000 
526	1355.000000 
527	1360.000000 
528	1450.000000 
529	1556.666670 
530	1640.000000 
531	1820.000000 
532	1850.000000 
533	1780.000000 
534	1755.000000 
535	1765.000000 
536	1775.000000 
537	1840.000000 
538	1865.000000 
539	1900.000000 
540	1970.000000 
541	1950.000000 
542	1950.000000 
543	1955.000000 
544	2100.000000 
545	2220.000000 
546	2270.000000 
547	2310.000000 
548	2340.000000 
549	2340.000000 
550	2400.000000 
551	2410.000000 
552	2350.000000 
553	2300.000000 
554	2360.000000 
555	2405.000000 
556	2340.000000 
557	2370.000000 
558	2330.000000 
559	2360.000000 
560	2320.000000 
561	2280.000000 
562	2370.000000 
563	2370.000000 
564	2370.000000 
565	2400.000000 
566	2410.000000 
567	2410.000000 
568	2390.000000 
569	2395.000000 
570	2395.000000 
571	2425.000000 
572	2440.000000 
573	2450.000000 
574	2415.000000 
575	2400.000000 
576	2365.000000 
577	2365.000000 
578	2285.000000 
579	2240.000000 
580	2110.000000 
581	2060.000000 
582	2030.000000 
583	2160.000000 
584	2285.000000 
585	2320.000000 
586	2365.000000 
587	2370.000000 
588	2355.000000 
589	2325.000000 
590	2310.000000 
591	2340.000000 
592	2410.000000 
593	2355.000000 
594	2350.000000 
595	2450.000000 
596	2435.000000 
597	2450.000000 
598	2410.000000 
599	2390.000000 
600	2380.000000 
601	2450.000000 
602	2445.000000 
603	2410.000000 
604	2430.000000 
605	2455.000000 
606	2445.000000 
607	2445.000000 
608	2450.000000 
609	2460.000000 
610	2450.000000 
611	2450.000000 
612	2455.000000 
613	2450.000000 
614	2445.000000 
615	2455.000000 
616	2445.000000 
617	2400.000000 
618	2400.000000 
619	2410.000000 
620	2420.000000 
621	2430.000000 
622	2415.000000 
623	2415.000000 
624	2430.000000 
625	2455.000000 
626	2460.000000 
627	2460.000000 
628	2450.000000 
629	2450.000000 
630	2445.000000 
631	2440.000000 
632	2415.000000 
633	2400.000000 
634	2390.000000 
635	2410.000000 
636	2420.000000 
637	2430.000000 
638	2440.000000 
639	2425.000000 
640	2410.000000 
641	2400.000000 
642	2410.000000 
643	2420.000000 
644	2410.000000 
645	2370.000000 
646	2400.000000 
647	2385.000000 
648	2400.000000 
649	2420.000000 
650	2430.000000 
651	2425.000000 
652	2420.000000 
653	2420.000000 
654	2403.333330 
655	2430.000000 
656	2390.000000 
657	2400.000000 
658	2410.000000 
659	2393.333330 
660	2345.000000 
661	2260.000000 
662	2290.000000 
663	2300.000000 
664	2350.000000 
665	2390.000000 
666	2370.000000 
667	2390.000000 
668	2340.000000 
669	2370.000000 
670	2370.000000 
671	2370.000000 
672	2360.000000 
673	2350.000000 
674	2320.000000 
675	2320.000000 
676	2310.000000 
677	2285.000000 
678	2320.000000 
679	2295.000000 
680	2260.000000 
681	2265.000000 
682	2105.000000 
683	2160.000000 
684	2095.000000 
685	2040.000000 
686	2020.000000 
687	1945.000000 
688	1866.666670 
689	1840.000000 
690	1755.000000 
691	1780.000000 
692	1650.000000 
693	1505.000000 
694	1490.000000 
695	1470.000000 
696	1460.000000 
697	1400.000000 
698	1305.000000 
699	1290.000000 
700	1075.000000 
701	985.000000 
702	990.000000 
703	890.000000 
704	765.000000 
705	635.000000 
706	625.000000 
707	623.333330 
708	700.000000 
709	750.000000 
710	785.000000 
711	860.000000 
712	895.000000 
713	950.000000 
714	940.000000 
715	945.000000 
716	940.000000 
717	950.000000 
718	985.000000 
719	1145.000000 
720	1150.000000 
721	1225.000000 
722	1330.000000 
723	1426.666670 
724	1510.000000 
725	1590.000000 
726	1800.000000 
727	1820.000000 
728	1940.000000 
729	2065.000000 
730	2090.000000 
731	2123.333330 
732	2100.000000 
733	2200.000000 
734	2190.000000 
735	2190.000000 
736	2180.000000 
737	2205.000000 
738	2240.000000 
739	2260.000000 
740	2250.000000 
741	2260.000000 
742	2236.666670 
743	2280.000000 
744	2370.000000 
745	2375.000000 
746	2410.000000 
747	2420.000000 
748	2420.000000 
749	2370.000000 
750	2320.000000 
751	2420.000000 
752	2450.000000 
753	2445.000000 
754	2430.000000 
755	2410.000000 
756	2420.000000 
757	2430.000000 
758	2410.000000 
759	2390.000000 
760	2400.000000 
761	2415.000000 
762	2430.000000 
763	2450.000000 
764	2440.000000 
765	2440.000000 
766	2395.000000 
767	2430.000000 
768	2445.000000 
769	2430.000000 
770	2410.000000 
771	2395.000000 
772	2380.000000 
773	2350.000000 
774	2385.000000 
775	2400.000000 
776	2385.000000 
777	2450.000000 
778	2450.000000 
779	2460.000000 
780	2460.000000 
781	2435.000000 
782	2450.000000 
783	2430.000000 
784	2410.000000 
785	2430.000000 
786	2455.000000 
787	2440.000000 
788	2440.000000 
789	2425.000000 
790	2430.000000 
791	2445.000000 
792	2450.000000 
793	2460.000000 
794	2420.000000 
795	2390.000000 
796	2350.000000 
797	2275.000000 
798	2160.000000 
799	2065.000000 
800	1960.000000 
801	1860.000000 
802	1825.000000 
803	1740.000000 
804	1660.000000 
805	1560.000000 
806	1540.000000 
807	1520.000000 
808	1570.000000 
809	1575.000000 
810	1550.000000 
811	1565.000000 
812	1550.000000 
813	1570.000000 
814	1470.000000 
815	1440.000000 
816	1460.000000 
817	1443.333330 
818	1465.000000 
819	1370.000000 
820	1375.000000 
821	1300.000000 
822	1185.000000 
823	1285.000000 
824	1410.000000 
825	1360.000000 
826	1500.000000 
827	1470.000000 
828	1620.000000 
829	1500.000000 
830	1435.000000 
831	1420.000000 
832	1335.000000 
833	1250.000000 
834	1285.000000 
835	1340.000000 
836	1410.000000 
837	1510.000000 
838	1480.000000 
839	1360.000000 
840	1430.000000 
841	1416.666670 
842	1380.000000 
843	1470.000000 
844	1520.000000 
845	1490.000000 
846	1440.000000 
847	1385.000000 
848	1380.000000 
849	1390.000000 
850	1445.000000 
851	1440.000000 
852	1410.000000 
853	1320.000000 
854	1320.000000 
855	1200.000000 
856	960.000000 
857	880.000000 
858	770.000000 
859	680.000000 
860	610.000000 
861	540.000000 
862	510.000000 
863	520.000000 
864	630.000000 
865	735.000000 
866	825.000000 
867	920.000000 
868	965.000000 
869	990.000000 
870	950.000000 
871	990.000000 
872	1030.000000 
873	1085.000000 
874	1140.000000 
875	1165.000000 
876	1100.000000 
877	1080.000000 
878	1127.500000 
879	1175.000000 
880	1222.500000 
881	1270.000000 
882	1200.000000 
883	1235.000000 
884	1270.000000 
885	1280.000000 
886	1190.000000 
887	1070.000000 
888	980.000000 
889	940.000000 
890	965.000000 
891	950.000000 
892	980.000000 
893	1060.000000 
894	1090.000000 
895	1090.000000 
896	1110.000000 
897	1240.000000 
898	1440.000000 
899	1535.000000 
900	1495.000000 
901	1515.000000 
902	1510.000000 
903	1475.000000 
904	1390.000000 
905	1370.000000 
906	1355.000000 
907	1380.000000 
908	1410.000000 
909	1460.000000 
910	1525.000000 
911	1600.000000 
912	1670.000000 
913	1700.000000 
914	1745.000000 
915	1790.000000 
916	1765.000000 
917	1835.000000 
918	1850.000000 
919	1870.000000 
920	1800.000000 
921	1795.000000 
922	1780.000000 
923	1830.000000 
924	1840.000000 
925	1855.000000 
926	1906.666670 
927	1940.000000 
928	1905.000000 
929	1940.000000 
930	1940.000000 
931	1906.666670 
932	1865.000000 
933	1920.000000 
934	1940.000000 
935	1975.000000 
936	1940.000000 
937	2025.000000 
938	2070.000000 
939	2080.000000 
940	2030.000000 
941	2160.000000 
942	2235.000000 
943	2345.000000 
944	2370.000000 
945	2385.000000 
946	2420.000000 
947	2420.000000 
948	2430.000000 
949	2420.000000 
950	2410.000000 
951	2430.000000 
952	2413.333330 
953	2380.000000 
954	2370.000000 
955	2435.000000 
956	2400.000000 
957	2415.000000 
958	2430.000000 
959	2375.000000 
960	2390.000000 
961	2345.000000 
962	2400.000000 
963	2420.000000 
964	2410.000000 
965	2435.000000 
966	2430.000000 
967	2390.000000 
968	2390.000000 
969	2345.000000 
970	2405.000000 
971	2405.000000 
972	2430.000000 
973	2440.000000 
974	2440.000000 
975	2465.000000 
976	2460.000000 
977	2460.000000 
978	2400.000000 
979	2420.000000 
980	2425.000000 
981	2400.000000 
982	2390.000000 
983	2380.000000 
984	2320.000000 
985	2405.000000 
986	2350.000000 
987	2335.000000 
988	2420.000000 
989	2390.000000 
990	2407.500000 
991	2425.000000 
992	2450.000000 
993	2430.000000 
994	2390.000000 
995	2410.000000 
996	2440.000000 
997	2450.000000 
998	2410.000000 
" fill="none" stroke="yellow" stroke-width="6"/>
</svg>
